<?xml version="1.0" standalone="no"?>
<!DOCTYPE svg PUBLIC "-//W3C//DTD SVG 20010904//EN"
 "http://www.w3.org/TR/2001/REC-SVG-20010904/DTD/svg10.dtd">
<svg version="1.0" xmlns="http://www.w3.org/2000/svg"
 width="1500.000000pt" height="1500.000000pt" viewBox="0 0 1500.000000 1500.000000"
 preserveAspectRatio="xMidYMid meet">

<g transform="translate(0.000000,1500.000000) scale(0.100000,-0.100000)"
fill="#eb0069" stroke="none">
<path d="M0 7500 l0 -7500 7500 0 7500 0 0 7500 0 7500 -7500 0 -7500 0 0
-7500z m8203 5191 c790 -141 1425 -613 1776 -1321 178 -359 259 -729 248
-1135 -10 -377 -83 -674 -248 -1011 -323 -660 -935 -1139 -1659 -1297 -188
-41 -291 -52 -520 -51 -288 0 -496 32 -750 116 -169 55 -407 165 -502 230
l-27 19 -368 -137 c-202 -75 -428 -158 -501 -185 -165 -60 -198 -62 -241 -14
-17 20 -31 45 -31 57 0 11 84 250 187 531 l187 509 -28 47 c-59 100 -167 328
-205 436 -195 549 -186 1154 26 1695 301 769 973 1333 1782 1495 194 39 257
44 516 40 190 -2 265 -7 358 -24z m1955 -5349 c222 -618 507 -1400 509 -1399
1 1 65 367 143 812 77 446 143 818 146 828 5 16 29 17 320 17 173 0 314 -2
314 -4 0 -3 -86 -490 -191 -1083 -105 -593 -200 -1134 -212 -1203 l-22 -125
-411 -3 -412 -2 -15 37 c-8 21 -137 379 -287 795 -151 417 -275 757 -276 755
-2 -2 -62 -340 -134 -752 -72 -413 -134 -768 -138 -790 l-8 -40 -318 -3 -318
-2 6 27 c9 40 26 136 231 1303 102 575 187 1055 190 1068 l5 22 393 0 392 0
93 -258z m-6181 -181 c-4 -16 -54 -296 -111 -623 -58 -326 -114 -639 -124
-695 l-18 -103 471 0 472 0 -23 -127 c-13 -70 -22 -128 -21 -129 1 -1 205 383
452 852 l450 854 316 0 316 0 6 -32 c3 -18 75 -432 161 -919 86 -487 156 -891
156 -897 0 -9 -69 -12 -265 -12 -146 0 -265 2 -265 4 0 10 -61 424 -66 449
l-6 27 -289 0 -289 0 -120 -240 -120 -240 -948 0 -948 0 158 893 c87 490 161
909 164 930 l7 37 245 0 245 0 -6 -29z m4384 -161 l-35 -190 -301 0 -301 0
-72 -407 c-152 -863 -182 -1029 -187 -1050 l-5 -23 -240 0 c-224 0 -240 1
-240 18 0 10 56 335 125 722 69 388 125 713 125 723 0 16 -21 17 -300 17 -165
0 -300 3 -300 6 0 12 61 338 66 357 5 16 54 17 853 17 l847 0 -35 -190z m566
168 c-3 -13 -76 -421 -161 -908 -86 -487 -159 -895 -161 -907 l-5 -23 -246 0
c-229 0 -245 1 -240 18 3 9 75 415 161 902 85 487 158 897 161 913 l6 27 245
0 245 0 -5 -22z m-3781 -2136 c54 -27 107 -90 123 -144 7 -23 13 -75 13 -117
-1 -99 -35 -171 -105 -218 -140 -94 -326 -51 -400 92 -29 57 -35 176 -12 245
22 65 84 131 146 153 62 23 180 17 235 -11z m2580 -8 c46 -28 76 -70 89 -126
l7 -28 -61 0 c-60 0 -61 0 -76 35 -15 37 -61 65 -108 65 -34 0 -87 -39 -108
-80 -43 -80 -13 -246 51 -277 66 -33 147 -5 168 57 l11 30 -55 0 -54 0 0 45 0
45 115 0 116 0 -3 -137 -3 -138 -47 -3 -47 -3 -7 38 c-6 33 -8 35 -16 17 -17
-37 -65 -57 -137 -57 -80 0 -123 17 -173 68 -47 49 -68 110 -68 200 0 94 23
158 75 210 56 57 110 75 207 71 65 -2 85 -7 124 -32z m-4108 -21 l-3 -48 -132
-3 -133 -3 0 -59 0 -60 125 0 125 0 0 -50 0 -50 -125 0 -125 0 0 -60 0 -60
141 0 140 0 -3 -47 -3 -48 -197 -3 -198 -2 0 270 0 270 196 0 195 0 -3 -47z
m212 -153 c0 -200 0 -201 25 -225 19 -19 35 -25 70 -25 103 0 115 29 115 270
l0 180 60 0 60 0 0 -197 c0 -250 -13 -285 -115 -329 -63 -27 -180 -24 -240 7
-93 46 -104 82 -105 337 l0 182 65 0 65 0 0 -200z m780 177 c46 -23 72 -66 72
-123 0 -51 -20 -87 -63 -113 l-29 -18 21 -19 c30 -27 38 -44 54 -130 8 -42 19
-82 25 -89 16 -19 1 -25 -62 -25 -67 0 -68 2 -87 105 -17 92 -30 105 -101 105
l-60 0 0 -105 0 -105 -60 0 -60 0 0 271 0 271 158 -4 c125 -2 164 -7 192 -21z
m1099 -2 c59 -35 76 -67 76 -145 0 -117 -52 -161 -197 -168 l-87 -4 -3 -97 -3
-96 -60 0 -60 0 -3 268 -2 269 152 -4 c131 -3 158 -6 187 -23z m530 -232 c50
-142 91 -264 91 -271 0 -10 -16 -12 -62 -10 l-63 3 -25 75 -26 75 -84 0 -85 0
-26 -75 -26 -75 -62 -3 c-45 -2 -61 0 -61 10 0 7 42 129 92 270 l93 258 76 0
76 0 92 -257z m646 230 c101 -53 130 -105 130 -233 0 -104 -15 -147 -71 -204
-54 -54 -104 -69 -261 -74 l-143 -5 0 273 0 272 153 -4 c130 -3 158 -7 192
-25z m345 -243 l0 -270 -60 0 -60 0 0 270 0 270 60 0 60 0 0 -270z m808 3 l-3
-268 -57 -3 -58 -3 0 271 0 270 60 0 60 0 -2 -267z m542 217 l0 -50 -90 0 -90
0 0 -220 0 -220 -60 0 -60 0 0 220 0 220 -90 0 -90 0 0 50 0 50 240 0 240 0 0
-50z m437 -215 c51 -143 93 -263 93 -267 0 -5 -29 -8 -64 -8 l-64 0 -27 80
-27 80 -83 0 -83 0 -27 -80 -27 -80 -64 0 c-35 0 -64 3 -64 6 0 3 41 119 90
257 50 139 93 258 95 265 3 9 26 12 82 10 l77 -3 93 -260z m273 50 l0 -215
141 0 140 0 -3 -52 -3 -53 -197 -3 -198 -2 0 270 0 270 60 0 60 0 0 -215z
m810 45 c40 -21 70 -63 70 -100 0 -17 -6 -20 -40 -20 -33 0 -42 4 -49 23 -22
57 -97 71 -137 24 -48 -56 -38 -178 18 -220 38 -28 87 -14 108 30 14 29 19 33
59 33 l44 0 -7 -32 c-13 -66 -76 -108 -161 -108 -109 0 -172 59 -182 169 -9
94 32 176 102 207 46 20 129 17 175 -6z m387 9 c76 -28 119 -112 111 -213 -8
-102 -78 -166 -181 -166 -69 0 -103 12 -145 53 -90 87 -60 272 53 323 36 16
123 18 162 3z m319 -16 c4 -16 22 -82 39 -148 l32 -119 21 79 c12 44 29 111
38 148 l17 68 66 -3 66 -3 0 -190 0 -190 -42 -3 -43 -3 -1 138 -1 138 -17 -65
c-10 -36 -28 -98 -40 -138 l-22 -73 -46 3 -46 3 -19 65 c-10 36 -27 97 -38
135 l-19 70 0 -138 -1 -138 -42 3 -43 3 -3 180 c-1 98 0 185 2 192 4 9 27 13
70 13 63 0 66 -1 72 -27z m-1055 -273 c23 -13 26 -62 5 -79 -26 -22 -70 -9
-81 23 -8 24 -6 31 14 47 27 22 35 23 62 9z"/>
<path d="M7120 11505 c-61 -19 -125 -76 -158 -139 l-27 -51 0 -1020 0 -1020
23 -47 c27 -54 88 -113 141 -136 51 -21 147 -19 202 5 62 28 1527 969 1567
1006 102 97 106 273 9 372 -37 38 -1412 929 -1553 1007 -62 34 -142 43 -204
23z"/>
<path d="M5617 6461 c-70 -143 -127 -262 -127 -265 0 -4 77 -6 170 -6 l170 0
-4 23 c-3 12 -19 128 -37 257 -18 129 -35 238 -39 243 -3 4 -64 -109 -133
-252z"/>
<path d="M4961 4952 c-59 -29 -76 -62 -79 -156 -5 -98 17 -155 70 -182 44 -23
121 -14 154 17 56 53 68 189 23 269 -37 65 -103 86 -168 52z"/>
<path d="M4380 4885 l0 -65 68 0 c84 0 106 13 106 65 0 52 -22 65 -106 65
l-68 0 0 -65z"/>
<path d="M5500 4880 l0 -70 63 0 c75 0 97 16 97 73 0 49 -28 67 -102 67 l-58
0 0 -70z"/>
<path d="M6042 4852 c-12 -38 -22 -74 -22 -80 0 -8 18 -12 50 -12 28 0 50 3
50 8 0 18 -44 152 -49 152 -4 0 -17 -31 -29 -68z"/>
<path d="M6660 4779 l0 -172 70 5 c41 3 80 12 96 22 59 39 82 161 45 243 -25
54 -62 73 -146 73 l-65 0 0 -171z"/>
<path d="M8820 4859 c-12 -39 -24 -78 -27 -85 -4 -11 8 -14 52 -14 44 0 56 3
52 14 -3 7 -15 46 -27 85 -11 39 -23 71 -25 71 -2 0 -14 -32 -25 -71z"/>
<path d="M10370 4828 c-80 -41 -77 -208 4 -247 65 -30 136 30 136 116 0 48
-18 101 -42 120 -23 20 -71 25 -98 11z"/>
</g>
</svg>
