<?xml version="1.0" standalone="no"?>
<!DOCTYPE svg PUBLIC "-//W3C//DTD SVG 20010904//EN"
 "http://www.w3.org/TR/2001/REC-SVG-20010904/DTD/svg10.dtd">
<svg version="1.0" xmlns="http://www.w3.org/2000/svg"
 width="1500.000000pt" height="1500.000000pt" viewBox="0 0 1500.000000 1500.000000"
 preserveAspectRatio="xMidYMid meet">

<g transform="translate(0.000000,1500.000000) scale(0.100000,-0.100000)"
fill="#eb0069" stroke="none">
<path d="M0 7500 l0 -7500 7500 0 7500 0 0 7500 0 7500 -7500 0 -7500 0 0
-7500z m8180 5196 c409 -68 781 -223 1089 -455 534 -400 867 -955 972 -1616
28 -179 30 -520 5 -684 -62 -398 -178 -711 -373 -1010 -383 -588 -956 -965
-1658 -1092 -151 -27 -518 -38 -677 -19 -342 39 -702 156 -963 314 -69 41 -82
43 -150 17 -331 -124 -788 -293 -872 -322 -107 -38 -127 -37 -169 5 -48 48
-46 75 21 251 15 39 37 99 50 135 13 36 67 182 120 325 53 143 108 293 122
332 l27 73 -28 47 c-130 227 -250 531 -296 753 -66 321 -68 695 -4 1010 72
353 236 711 466 1012 76 100 268 300 361 375 40 32 78 64 85 71 7 6 64 45 125
86 352 233 690 355 1137 410 83 10 518 -3 610 -18z m2007 -5436 c67 -184 179
-492 248 -685 70 -192 141 -390 160 -440 18 -49 41 -114 51 -142 10 -29 19
-51 21 -49 2 2 8 28 13 57 5 30 30 173 55 319 112 638 169 965 195 1120 11 63
22 125 25 138 l5 22 310 0 c170 0 311 -4 314 -9 3 -4 -3 -55 -14 -112 -10 -57
-46 -261 -80 -454 -33 -192 -67 -386 -76 -430 -8 -44 -19 -105 -24 -135 -26
-139 -174 -982 -198 -1122 l-26 -158 -418 0 c-266 0 -418 4 -418 10 0 11 -60
178 -476 1328 -48 133 -89 240 -92 238 -2 -3 -17 -78 -32 -168 -32 -182 -104
-591 -156 -888 -19 -107 -46 -268 -61 -357 l-27 -163 -319 0 -319 0 5 23 c3
12 38 204 77 427 39 223 82 466 95 540 13 74 33 187 44 250 11 63 40 230 66
370 54 301 112 631 126 715 6 33 12 68 15 78 5 16 30 17 397 15 l392 -3 122
-335z m1939 230 c-3 -16 -9 -43 -12 -60 -5 -29 -8 -30 -60 -30 -49 0 -54 -2
-54 -22 0 -13 -3 -39 -6 -59 -6 -35 -4 -38 40 -68 41 -29 46 -36 45 -69 -3
-94 5 -96 -202 53 l-188 136 6 35 c3 19 7 50 10 69 l6 34 67 4 c37 2 131 4
210 5 l144 2 -6 -30z m-8152 -309 c3 -4 -6 -71 -19 -147 -31 -169 -96 -541
-135 -764 -16 -91 -43 -241 -59 -334 -17 -93 -31 -175 -31 -182 0 -12 79 -14
465 -14 l465 0 0 -23 c0 -12 -9 -69 -20 -127 -11 -58 -20 -107 -20 -110 0 -7
63 109 190 350 59 113 147 279 195 370 48 91 120 228 161 305 40 77 138 262
216 410 l144 270 314 0 315 0 12 -62 c7 -34 30 -164 52 -290 64 -364 109 -621
152 -868 89 -503 109 -620 109 -632 0 -10 -59 -13 -265 -13 -146 0 -265 3
-265 8 0 28 -63 442 -70 460 l-10 22 -277 0 c-153 0 -283 -4 -289 -8 -6 -4
-63 -114 -127 -244 l-116 -238 -945 0 -946 0 0 27 c0 14 9 76 20 137 37 197
49 266 100 556 124 708 201 1134 206 1142 7 11 472 10 478 -1z m4416 -8 c0
-10 -9 -65 -20 -123 -11 -58 -25 -135 -31 -172 l-12 -68 -298 0 c-164 0 -300
-4 -303 -8 -2 -4 -19 -89 -36 -187 -17 -99 -40 -229 -51 -290 -11 -60 -28
-159 -39 -220 -10 -60 -26 -150 -35 -200 -18 -101 -58 -330 -84 -480 l-18
-100 -243 -3 -243 -2 6 47 c4 43 59 357 202 1157 25 137 45 257 45 267 0 18
-14 19 -300 19 -165 0 -300 1 -300 3 0 1 16 85 35 187 19 102 35 186 35 188 0
1 380 2 845 2 798 0 845 -1 845 -17z m533 10 c3 -5 -1 -44 -9 -88 -8 -44 -23
-129 -34 -190 -10 -60 -32 -186 -49 -280 -17 -93 -55 -309 -85 -480 -108 -609
-127 -721 -137 -772 l-10 -53 -238 0 c-131 0 -240 2 -243 5 -3 3 -1 27 4 53 7
41 34 191 123 702 13 74 60 340 104 590 44 250 83 470 86 488 l6 32 239 0
c131 0 241 -3 243 -7z m2906 -101 c55 -40 66 -67 66 -160 l0 -87 62 -20 c59
-19 63 -22 62 -50 -1 -16 -4 -42 -8 -56 l-6 -27 -193 63 c-106 35 -195 65
-197 67 -8 8 27 212 41 240 30 58 115 72 173 30z m16 -480 c82 -42 125 -113
125 -205 0 -133 -65 -207 -182 -207 -128 0 -238 103 -238 224 0 91 39 168 102
200 43 22 139 16 193 -12z m-196 -507 c16 -8 37 -32 48 -54 15 -29 23 -37 31
-29 10 10 170 14 180 4 2 -3 1 -28 -3 -55 l-7 -51 -74 0 c-71 0 -75 -1 -84
-26 -17 -43 -12 -49 60 -73 38 -12 71 -25 74 -29 8 -13 -6 -102 -17 -102 -5 0
-94 27 -198 61 -218 69 -200 49 -173 203 16 96 34 139 61 155 26 15 70 13 102
-4z m-44 -475 c185 -60 225 -96 225 -202 0 -76 -17 -127 -55 -165 -44 -44 -78
-43 -240 11 l-130 42 1 40 c1 78 -2 77 149 28 75 -25 145 -42 155 -39 23 7 44
58 36 90 -8 32 -25 40 -183 92 l-131 43 5 43 c6 58 11 70 26 65 6 -3 71 -24
142 -48z m-175 -461 c31 -11 32 -14 26 -51 -4 -22 -9 -65 -12 -97 l-7 -58 33
-12 c18 -6 34 -10 35 -9 1 2 7 41 13 87 7 46 14 86 17 89 2 3 19 1 37 -4 32
-9 33 -12 33 -59 0 -28 -4 -71 -8 -96 -8 -46 -8 -47 24 -58 18 -6 36 -8 39 -4
4 5 12 48 18 97 6 49 13 90 15 92 2 2 20 -2 40 -8 30 -9 37 -16 37 -37 -1 -36
-36 -280 -42 -286 -2 -2 -90 24 -196 58 -163 53 -191 65 -192 82 -1 55 36 285
46 285 6 0 26 -5 44 -11z m-5795 -148 c68 -30 128 -91 161 -165 25 -54 28 -73
28 -166 0 -93 -3 -112 -28 -166 -55 -122 -151 -184 -293 -192 -158 -9 -277 53
-338 174 -29 56 -30 65 -30 184 0 119 1 128 30 184 62 123 168 178 330 173 67
-2 103 -9 140 -26z m3345 4 c86 -43 137 -108 153 -192 l7 -33 -85 0 c-74 0
-85 2 -85 18 0 31 -40 83 -75 98 -69 29 -141 12 -191 -44 -83 -95 -66 -326 29
-394 25 -18 46 -23 95 -23 62 0 65 1 103 42 21 23 39 51 39 63 0 18 -6 20 -65
20 l-64 0 -6 33 c-4 19 -5 47 -3 63 l3 29 148 3 147 3 0 -186 0 -185 -65 0
c-64 0 -65 0 -66 28 0 15 -4 36 -8 46 -6 17 -9 15 -20 -12 -9 -21 -28 -38 -58
-53 -38 -18 -57 -21 -131 -17 -139 7 -214 55 -269 173 -25 54 -28 71 -28 170
0 61 6 129 13 152 25 85 113 172 204 205 69 24 224 21 278 -7z m-5330 -50 l0
-65 -175 0 -175 0 0 -80 0 -80 165 0 166 0 -3 -62 -3 -63 -162 -3 -163 -2 0
-75 0 -75 180 0 180 0 0 -65 0 -65 -260 0 -260 0 0 343 c0 189 3 347 7 350 3
4 118 7 255 7 l248 0 0 -65z m271 -172 c0 -157 4 -250 12 -273 34 -98 194
-109 244 -17 15 27 18 67 21 280 l4 247 79 0 79 0 0 -240 c0 -293 -6 -325 -69
-390 -62 -65 -127 -84 -260 -78 -107 5 -144 19 -204 76 -60 58 -67 97 -67 384
l0 248 80 0 80 0 1 -237z m3063 155 c16 -46 43 -123 61 -173 95 -262 155 -431
155 -438 0 -4 -39 -6 -87 -5 l-88 3 -31 95 -30 95 -113 0 -112 0 -32 -95 -32
-95 -82 -3 c-63 -2 -83 0 -83 10 0 7 54 165 121 351 l122 337 101 0 101 0 29
-82z m826 71 c124 -20 198 -69 248 -164 25 -46 27 -59 26 -170 0 -143 -16
-188 -92 -264 -75 -75 -137 -91 -358 -91 l-174 0 0 343 c0 189 3 347 7 350 10
11 272 8 343 -4z m558 -341 l2 -348 -82 0 -83 0 2 347 c2 192 3 349 3 351 0 2
35 2 78 0 l77 -3 3 -347z m1060 0 l2 -348 -85 0 -85 0 0 343 c0 189 3 347 7
351 4 4 41 5 83 4 l75 -3 3 -347z m700 285 l3 -63 -116 0 -115 0 0 -285 0
-285 -85 0 -85 0 0 285 0 285 -115 0 -115 0 0 58 c0 32 3 62 7 65 4 4 144 6
312 5 l306 -3 3 -62z m500 -75 c132 -367 192 -540 192 -549 0 -6 -33 -9 -86
-7 l-85 3 -32 95 -32 95 -110 3 -110 3 -34 -101 -35 -100 -83 0 c-46 0 -83 4
-83 9 0 4 50 147 111 317 61 170 116 324 122 342 l10 32 102 0 102 0 51 -142z
m432 -138 l0 -280 178 -2 177 -3 3 -67 3 -68 -263 0 -263 0 2 347 c2 192 3
349 3 351 0 1 36 2 80 2 l80 0 0 -280z m-6111 240 c66 -37 85 -69 89 -148 3
-58 0 -72 -20 -102 -13 -19 -41 -44 -62 -56 -36 -20 -37 -22 -19 -35 41 -29
62 -75 77 -162 8 -49 22 -102 31 -119 8 -17 15 -33 15 -35 0 -1 -40 -3 -89 -3
l-89 0 -10 43 c-6 23 -14 65 -18 92 -14 103 -47 135 -141 135 l-63 0 0 -135 0
-135 -82 0 -83 0 0 346 0 345 210 -3 c203 -3 212 -4 254 -28z m1404 14 c181
-62 181 -346 0 -408 -31 -11 -82 -16 -150 -16 l-103 0 0 -130 0 -130 -80 0
-80 0 0 350 0 350 183 0 c141 0 194 -4 230 -16z"/>
<path d="M7120 11491 c-69 -21 -140 -82 -176 -151 -18 -33 -19 -83 -22 -1060
-2 -959 -1 -1027 15 -1074 38 -104 142 -179 248 -179 94 1 29 -37 985 576 803
515 732 464 771 552 33 74 31 158 -7 233 -32 64 -60 84 -433 322 -100 63 -237
151 -306 195 -68 44 -209 134 -312 200 -104 66 -244 156 -313 200 -235 152
-260 167 -298 181 -40 14 -113 17 -152 5z"/>
<path d="M11858 7370 c23 -16 44 -30 46 -30 2 0 6 14 8 30 5 30 4 30 -45 30
l-50 0 41 -30z"/>
<path d="M5617 6458 c-70 -144 -126 -263 -124 -265 2 -2 78 -2 169 -1 l164 3
-36 257 c-20 142 -38 260 -41 262 -2 2 -61 -113 -132 -256z"/>
<path d="M11732 6978 c-6 -7 -12 -28 -14 -47 -3 -32 0 -36 35 -50 45 -17 57
-8 57 46 0 46 -53 81 -78 51z"/>
<path d="M11667 6498 c-29 -23 -39 -65 -23 -102 26 -64 134 -112 193 -87 53
22 69 88 32 135 -44 56 -159 86 -202 54z"/>
<path d="M11586 5968 c-9 -12 -16 -36 -16 -54 0 -27 5 -32 37 -42 44 -13 53
-5 53 49 0 22 -7 42 -18 52 -25 23 -38 21 -56 -5z"/>
<path d="M5400 4901 c-80 -42 -121 -157 -101 -282 17 -104 73 -167 156 -176
88 -10 159 38 189 129 32 99 13 234 -42 293 -51 55 -138 71 -202 36z"/>
<path d="M6847 4860 c-4 -8 -19 -57 -36 -107 l-29 -93 70 0 c67 0 69 1 62 23
-4 12 -19 60 -34 107 -16 50 -30 79 -33 70z"/>
<path d="M7620 4681 l0 -221 80 0 c95 0 138 15 172 61 38 50 51 102 46 183 -6
133 -65 186 -215 194 l-83 5 0 -222z"/>
<path d="M10442 4778 c-18 -57 -32 -107 -32 -111 0 -4 29 -7 65 -7 75 0 73
-14 26 134 l-27 88 -32 -104z"/>
<path d="M4650 4805 l0 -85 73 0 c48 0 83 6 107 18 32 15 35 22 38 63 3 41 -1
50 -24 68 -22 18 -40 21 -110 21 l-84 0 0 -85z"/>
<path d="M6100 4800 l0 -90 84 0 c77 0 85 2 110 26 36 37 36 95 0 129 -24 22
-36 25 -110 25 l-84 0 0 -90z"/>
</g>
</svg>
